<svg width="16" height="19" viewBox="0 0 16 19" fill="none" xmlns="http://www.w3.org/2000/svg">
<path d="M7.35475 3.66667C8.37023 3.66667 9.19344 2.84585 9.19344 1.83333C9.19344 0.820811 8.37023 0 7.35475 0C6.33926 0 5.51605 0.820811 5.51605 1.83333C5.51605 2.84585 6.33926 3.66667 7.35475 3.66667Z" fill="white"/>
<path d="M10.931 5.60083C10.5725 5.24333 9.95653 4.58333 8.76138 4.58333C8.56831 4.58333 7.4559 4.58333 6.42624 4.58333C3.89803 4.57417 1.83869 2.52083 1.83869 0H0C0 2.89667 1.93982 5.35333 4.59674 6.15083V18.3333H6.43543V12.8333H8.27412V18.3333H10.1128V7.37917L13.7442 11L15.0405 9.7075L10.931 5.60083Z" fill="white"/>
</svg>
